<svg width="0" height="0" class="hidden">
  <symbol viewBox="0 0 16 12" fill="none" xmlns="http://www.w3.org/2000/svg" id="antenna">
    <path d="M14.5 0h-13C.673 0 0 .628 0 1.4v8.402c0 .772.673 1.4 1.5 1.4h13c.827 0 1.5-.628 1.5-1.4V1.4c0-.772-.673-1.4-1.5-1.4zm0 .933a.53.53 0 0 1 .192.037L8 6.384 1.308.97A.529.529 0 0 1 1.5.933h13zm0 9.335h-13c-.276 0-.5-.209-.5-.466V1.956l6.672 5.398A.52.52 0 0 0 8 7.468a.52.52 0 0 0 .328-.114L15 1.956v7.846c0 .257-.224.466-.5.466z"
      fill="#757575"></path>
  </symbol>
  <symbol viewBox="0 0 10 15" fill="none" xmlns="http://www.w3.org/2000/svg" id="astronaut">
    <path d="M8.5 0h-7C.673 0 0 .628 0 1.4v12.136c0 .772.673 1.4 1.5 1.4h7c.827 0 1.5-.628 1.5-1.4V1.4C10 .628 9.327 0 8.5 0zm-7 .933h7c.276 0 .5.21.5.467v9.802H1V1.4c0-.257.224-.467.5-.467zm7 13.07h-7c-.276 0-.5-.21-.5-.467v-1.4h8v1.4c0 .257-.224.466-.5.466z"
      fill="#757575"></path>
  </symbol>
  <symbol viewBox="0 0 70 70" fill="none" xmlns="http://www.w3.org/2000/svg" id="client1">
    <path d="M69.943 9.896a1.168 1.168 0 0 0-.941-.793l-4.179-.608-1.87-3.787c-.392-.798-1.7-.798-2.092 0l-1.87 3.787-4.18.608a1.167 1.167 0 0 0-.648 1.99l3.026 2.948-.714 4.162c-.074.438.105.88.464 1.142a1.16 1.16 0 0 0 1.23.088l3.737-1.966 3.738 1.966a1.168 1.168 0 0 0 1.693-1.23l-.713-4.162 3.025-2.949a1.17 1.17 0 0 0 .294-1.196zM64.556 12.8c-.274.267-.4.655-.335 1.033l.418 2.437-2.189-1.15a1.165 1.165 0 0 0-1.087 0l-2.19 1.15.419-2.437a1.168 1.168 0 0 0-.335-1.033l-1.773-1.726 2.448-.356c.38-.055.708-.294.879-.639l1.094-2.216L63 10.078c.17.345.499.584.879.639l2.448.355-1.77 1.727zm-7.389 32.092h-2.334v2.334h2.334v-2.334zm0 4.668h-2.334v2.332h2.334V49.56zm2.333-2.334h-2.333v2.333H59.5v-2.333zm-4.666 0H52.5v2.333h2.334v-2.333zM49 57.726h-2.333v2.333H49v-2.333zm0 4.667h-2.333v2.333H49v-2.333zm2.333-2.333H49v2.333h2.333v-2.334zm-4.666 0h-2.334v2.333h2.334v-2.334zM35 53.06h-2.334v2.333H35v-2.334zm0 4.666h-2.334v2.333H35v-2.333zm2.333-2.334H35v2.334h2.333v-2.334zm-4.667 0h-2.333v2.334h2.333v-2.334zm-19.833-42h-2.334v2.333h2.334v-2.333zm0 4.667h-2.334v2.333h2.334v-2.333zm2.333-2.334h-2.333v2.334h2.333v-2.334zm-4.666 0H8.165v2.334h2.333v-2.334z"
      fill="#2196F3"></path>
    <path d="M54.063 30.974a3.88 3.88 0 0 0-2.599-1.541 3.886 3.886 0 0 0-2.93.77l-2.74 2.097-.001.002-4.151 3.1-2.97-1.184c5.296-2.376 8.998-7.674 8.998-13.825 0-8.362-6.83-15.167-15.227-15.167S17.215 12.03 17.215 20.393c0 3.031.907 5.85 2.45 8.222l-6.046-.053h-.01c-.019 0-.034.01-.051.01a1.136 1.136 0 0 0-.34.069c-.028.01-.057.016-.084.029-.014.006-.028.007-.042.014L6.02 32.175c-.001 0-.003 0-.003.002l-4.141 1.991a.898.898 0 0 0-.138.077A3.895 3.895 0 0 0 .43 39.268a3.884 3.884 0 0 0 2.31 1.944 3.891 3.891 0 0 0 3.016-.281l3.036-1.614 4.952-2.558 2.968-.017L4.808 48.588c0 .002-.002.002-.003.003l-2.929 2.916a3.607 3.607 0 0 0-1.072 2.577c0 .973.38 1.888 1.072 2.578a3.647 3.647 0 0 0 2.58 1.062c.936 0 1.869-.355 2.582-1.062l2.875-2.863 3.808-2.843 1.97 1.962-3.854 3.837-.003.002-2.928 2.917a3.607 3.607 0 0 0-1.073 2.576c0 .973.38 1.89 1.073 2.579a3.65 3.65 0 0 0 2.58 1.061c.935 0 1.87-.354 2.582-1.061l2.93-2.917 4.686-4.667.002-.003 2.21-2.188-.01-.008c.015-.014.035-.019.049-.034l11.3-12.377 7.593 1.08c.055.008.11.012.164.012.142 0 .278-.034.41-.084.039-.014.072-.033.109-.051.042-.021.086-.033.126-.06l7.029-4.666c.026-.018.04-.046.064-.065.028-.022.063-.031.089-.056l2.78-2.605a3.891 3.891 0 0 0 .465-5.166zM4.66 38.872c-.379.203-.81.244-1.221.113a1.564 1.564 0 0 1-.465-2.755l2.874-1.383.692 2.022.29.85-2.17 1.153zm7.65-3.998l-3.387 1.75-.558-1.633-.402-1.174 4.434-2.189-.087 3.246zm33.03-14.482c0 2.009-.48 3.904-1.31 5.599l-9.147-4.155a4.07 4.07 0 0 0-1.724-3.035L36.36 8.168c5.202 1.654 8.98 6.506 8.98 12.223zm-25.788 0c0-7.076 5.784-12.834 12.894-12.834.553 0 1.094.047 1.63.115L30.943 18.07c-.042 0-.081-.013-.125-.013a4.094 4.094 0 0 0-4.096 4.084 4.094 4.094 0 0 0 4.096 4.083c1.52 0 2.832-.838 3.54-2.066l8.45 3.839c-2.352 3.164-6.114 5.227-10.362 5.227-7.11 0-12.894-5.757-12.894-12.833zm13.03 1.75a1.76 1.76 0 0 1-1.764 1.75 1.759 1.759 0 0 1-1.762-1.75c0-.965.79-1.75 1.762-1.75s1.763.785 1.763 1.75zM5.391 55.007a1.331 1.331 0 0 1-1.87.002 1.299 1.299 0 0 1 0-1.847l2.105-2.097L7.49 52.92l-2.097 2.089zm7.03 8.167a1.33 1.33 0 0 1-1.87.002 1.3 1.3 0 0 1 0-1.847l2.106-2.098.88.876.983.978-2.099 2.09zm7.616-7.588l-.003.003-3.86 3.85-.882-.877-.982-.977 3.857-3.84v-.001l.004-.002c.087-.088.142-.193.196-.297.015-.03.044-.056.057-.087.036-.09.042-.187.056-.281.007-.054.03-.104.03-.159 0-.078-.028-.154-.044-.231-.014-.07-.014-.141-.041-.209a1.167 1.167 0 0 0-.2-.3c-.022-.027-.03-.06-.054-.084h-.002s0-.003-.002-.004l-3.515-3.5c-.037-.038-.085-.053-.127-.084a1.112 1.112 0 0 0-.19-.127 1.095 1.095 0 0 0-.205-.07 1.125 1.125 0 0 0-.225-.044 1.132 1.132 0 0 0-.209.01c-.078.01-.151.02-.227.045a1.08 1.08 0 0 0-.207.098c-.043.024-.092.033-.133.063L9.25 51.377l-1.97-1.963 5.247-5.22 9.54 9.382-2.03 2.01zm14.916-15.349c-.033-.004-.065.008-.099.006a1.153 1.153 0 0 0-.252.015 1.075 1.075 0 0 0-.404.15 1.13 1.13 0 0 0-.181.134c-.028.024-.062.036-.088.064L23.653 51.862l-9.468-9.311 6.197-6.165a1.168 1.168 0 0 0-.83-1.993l-4.854.028.061-3.516 6.79.058a15.2 15.2 0 0 0 10.897 4.596c.957 0 1.89-.1 2.799-.268.087.07.174.14.283.185l5.272 2.1.333 1.66.39 1.936-6.569-.935zm8.84.39l-.684-3.408 3.164-2.363.828 1.1 1.242 1.65-4.55 3.02zm8.212-6.193l-1.833 1.718-2.037-2.705 1.818-1.394c.34-.261.768-.367 1.188-.313.422.06.796.28 1.05.622a1.562 1.562 0 0 1-.187 2.072z"
      fill="#212121"></path>
    <path d="M29.755 40.565l-4.688-4.667a1.166 1.166 0 0 0-1.646 0l-4.687 4.667a1.172 1.172 0 0 0 0 1.654l4.687 4.667a1.165 1.165 0 0 0 1.646 0l4.688-4.667a1.167 1.167 0 0 0 0-1.654zm-5.51 3.848l-3.034-3.02 3.033-3.021 3.035 3.02-3.035 3.02zm13.302-33.321l-.564 2.266c.156.039 3.802.988 3.802 4.7h2.333c0-4.412-3.644-6.486-5.571-6.966zm5.571 9.3h-2.334v2.333h2.334v-2.333z"
      fill="#212121"></path>
  </symbol>
  <symbol viewBox="0 0 44 44" fill="none" xmlns="http://www.w3.org/2000/svg" id="client2">
    <path d="M44 22a21.931 21.931 0 0 1-6.444 15.556A21.932 21.932 0 0 1 22 44a21.931 21.931 0 0 1-15.556-6.444A21.931 21.931 0 0 1 0 22 21.931 21.931 0 0 1 6.444 6.444 21.931 21.931 0 0 1 22 0a21.931 21.931 0 0 1 15.556 6.444A21.931 21.931 0 0 1 44 22z"
      fill="#fff"></path>
    <g clip-path="url(#clip0)">
      <path d="M25.33 15.32h1.827v-3.18a23.588 23.588 0 0 0-2.66-.14c-2.633 0-4.436 1.656-4.436 4.7v2.8h-2.905v3.555h2.905V32h3.561v-8.944h2.788l.442-3.555h-3.23v-2.45c0-1.027.277-1.73 1.709-1.73z" fill="#AFB1B8"></path>
    </g>
    <defs>
      <clipPath id="clip0">
        <path fill="#fff" transform="translate(12 12)" d="M0 0h20v20H0z"></path>
      </clipPath>
    </defs>
  </symbol>
  <symbol viewBox="0 0 44 44" fill="none" xmlns="http://www.w3.org/2000/svg" id="client3">
    <path d="M44 22a21.931 21.931 0 0 1-6.444 15.556A21.932 21.932 0 0 1 22 44a21.931 21.931 0 0 1-15.556-6.444A21.931 21.931 0 0 1 0 22 21.931 21.931 0 0 1 6.444 6.444 21.931 21.931 0 0 1 22 0a21.931 21.931 0 0 1 15.556 6.444A21.931 21.931 0 0 1 44 22z"
      fill="#fff"></path>
    <g clip-path="url(#clip0)" fill="#AFB1B8">
      <path d="M31.98 17.88c-.046-1.063-.218-1.793-.464-2.426a4.881 4.881 0 0 0-1.157-1.774 4.922 4.922 0 0 0-1.77-1.153c-.637-.246-1.363-.418-2.426-.464-1.07-.051-1.41-.063-4.126-.063-2.715 0-3.055.012-4.122.059-1.063.046-1.793.219-2.426.465a4.879 4.879 0 0 0-1.774 1.156 4.923 4.923 0 0 0-1.152 1.77c-.247.637-.418 1.363-.465 2.426-.051 1.07-.063 1.41-.063 4.126 0 2.715.012 3.055.059 4.122.047 1.063.219 1.793.465 2.426a4.932 4.932 0 0 0 1.156 1.774 4.92 4.92 0 0 0 1.77 1.152c.637.247 1.364.419 2.426.465 1.067.047 1.407.059 4.122.059 2.716 0 3.055-.012 4.122-.059 1.063-.046 1.793-.218 2.426-.464a5.116 5.116 0 0 0 2.927-2.927c.246-.637.418-1.364.465-2.426.047-1.067.058-1.407.058-4.122s-.004-3.055-.05-4.122zm-1.8 8.166c-.044.977-.208 1.504-.344 1.855a3.318 3.318 0 0 1-1.9 1.9c-.35.136-.882.3-1.855.343-1.055.047-1.371.059-4.04.059-2.668 0-2.989-.012-4.04-.059-.977-.043-1.504-.207-1.856-.344a3.076 3.076 0 0 1-1.148-.746 3.109 3.109 0 0 1-.747-1.148c-.136-.352-.3-.883-.343-1.856-.047-1.055-.059-1.372-.059-4.04 0-2.669.012-2.99.059-4.04.043-.977.207-1.504.343-1.856a3.04 3.04 0 0 1 .75-1.149 3.104 3.104 0 0 1 1.15-.746c.35-.136.882-.3 1.855-.344 1.055-.046 1.372-.058 4.04-.058 2.672 0 2.989.011 4.04.058.977.043 1.504.207 1.856.344.433.16.828.414 1.148.746.332.325.586.715.747 1.15.136.35.3.882.343 1.855.047 1.055.059 1.371.059 4.04 0 2.668-.012 2.98-.059 4.036z"></path>
      <path d="M22.037 16.864a5.139 5.139 0 1 0 5.138 5.138 5.139 5.139 0 0 0-5.138-5.138zm0 8.47a3.333 3.333 0 1 1 .001-6.666 3.333 3.333 0 0 1 0 6.667zm6.541-8.673a1.2 1.2 0 1 1-2.4 0 1.2 1.2 0 0 1 2.4 0z"></path>
    </g>
    <defs>
      <clipPath id="clip0">
        <path fill="#fff" transform="translate(12 12)" d="M0 0h20v20H0z"></path>
      </clipPath>
    </defs>
  </symbol>
  <symbol viewBox="0 0 44 44" fill="none" xmlns="http://www.w3.org/2000/svg" id="client4">
    <path d="M44 22a21.931 21.931 0 0 1-6.444 15.556A21.932 21.932 0 0 1 22 44a21.931 21.931 0 0 1-15.556-6.444A21.931 21.931 0 0 1 0 22 21.931 21.931 0 0 1 6.444 6.444 21.931 21.931 0 0 1 22 0a21.931 21.931 0 0 1 15.556 6.444A21.931 21.931 0 0 1 44 22z"
      fill="#fff"></path>
    <g clip-path="url(#clip0)" fill="#AFB1B8">
      <path d="M31.995 32H32v-7.336c0-3.588-.772-6.352-4.967-6.352-2.017 0-3.37 1.106-3.923 2.155h-.058v-1.82h-3.978v13.352h4.142v-6.611c0-1.741.33-3.425 2.486-3.425 2.124 0 2.156 1.987 2.156 3.536V32h4.137zM12.33 18.648h4.147V32H12.33V18.648zM14.402 12A2.402 2.402 0 0 0 12 14.402c0 1.325 1.076 2.424 2.402 2.424 1.325 0 2.401-1.099 2.401-2.424A2.403 2.403 0 0 0 14.402 12z"></path>
    </g>
    <defs>
      <clipPath id="clip0">
        <path fill="#fff" transform="translate(12 12)" d="M0 0h20v20H0z"></path>
      </clipPath>
    </defs>
  </symbol>
  <symbol viewBox="0 0 44 44" fill="none" xmlns="http://www.w3.org/2000/svg" id="client5">
    <path d="M44 22a21.931 21.931 0 0 1-6.444 15.556A21.932 21.932 0 0 1 22 44a21.931 21.931 0 0 1-15.556-6.444A21.931 21.931 0 0 1 0 22 21.931 21.931 0 0 1 6.444 6.444 21.931 21.931 0 0 1 22 0a21.931 21.931 0 0 1 15.556 6.444A21.931 21.931 0 0 1 44 22z"
      fill="#fff"></path>
    <g clip-path="url(#clip0)">
      <path d="M32 15.799a8.55 8.55 0 0 1-2.363.647 4.076 4.076 0 0 0 1.804-2.266 8.191 8.191 0 0 1-2.6.992 4.099 4.099 0 0 0-7.093 2.804c0 .325.028.638.096.935-3.409-.166-6.425-1.8-8.452-4.289a4.128 4.128 0 0 0-.56 2.073c0 1.42.73 2.679 1.82 3.407a4.048 4.048 0 0 1-1.852-.505v.045a4.119 4.119 0 0 0 3.285 4.03 4.09 4.09 0 0 1-1.075.134 3.62 3.62 0 0 1-.776-.07c.531 1.624 2.039 2.818 3.831 2.857a8.238 8.238 0 0 1-5.084 1.748 7.67 7.67 0 0 1-.981-.056 11.543 11.543 0 0 0 6.29 1.84c7.545 0 11.67-6.25 11.67-11.668 0-.18-.006-.356-.015-.53A8.179 8.179 0 0 0 32 15.8z"
        fill="#AFB1B8"></path>
    </g>
    <defs>
      <clipPath id="clip0">
        <path fill="#fff" transform="translate(12 12)" d="M0 0h20v20H0z"></path>
      </clipPath>
    </defs>
  </symbol>
</svg>